<?xml version="1.0" encoding="utf-8"?>
<!-- Generator: Adobe Illustrator 15.1.0, SVG Export Plug-In . SVG Version: 6.00 Build 0)  -->
<!DOCTYPE svg PUBLIC "-//W3C//DTD SVG 1.1//EN" "http://www.w3.org/Graphics/SVG/1.1/DTD/svg11.dtd">
<svg version="1.1" id="Layer_1" xmlns="http://www.w3.org/2000/svg" xmlns:xlink="http://www.w3.org/1999/xlink" x="0px" y="0px"
	 width="103.147px" height="24.161px" viewBox="0 0 103.147 24.161" enable-background="new 0 0 103.147 24.161"
	 xml:space="preserve">
<g>
	<g>
		<path fill="#8DC641" d="M82.125,12.539H77.55c-0.099,0.355-0.152,0.732-0.152,1.121c0,0.388,0.054,0.763,0.152,1.12h4.574V12.539z
			"/>
		<path fill="#8DC641" d="M86.502,7.227h-6.417v0.001c-0.006,0-0.011-0.001-0.016-0.001c-3.553,0-6.432,2.88-6.432,6.433
			c0,3.551,2.879,6.433,6.432,6.433c0.005,0,0.01-0.004,0.016-0.004v0.004h6.417V17.85h-6.396c-0.013,0-0.023,0.001-0.036,0.001
			c-0.113,0-0.223-0.006-0.333-0.014c-0.011,0-0.023-0.003-0.035-0.004c-0.05-0.005-0.097-0.01-0.146-0.015
			c-0.013-0.001-0.025-0.003-0.038-0.005c-0.049-0.007-0.099-0.014-0.147-0.021c-0.009-0.002-0.015-0.004-0.022-0.005
			c-1.97-0.342-3.47-2.06-3.47-4.127c0-1.707,1.021-3.172,2.483-3.828c0.009-0.003,0.018-0.007,0.026-0.012
			c0.04-0.018,0.081-0.035,0.122-0.051c0.018-0.007,0.036-0.014,0.054-0.022c0.038-0.014,0.075-0.028,0.111-0.041
			c0.022-0.008,0.048-0.016,0.072-0.025c0.034-0.011,0.067-0.022,0.103-0.033c0.032-0.01,0.065-0.019,0.099-0.028
			c0.042-0.011,0.084-0.022,0.127-0.033s0.086-0.021,0.132-0.03c0.025-0.006,0.049-0.01,0.075-0.015
			c0.038-0.007,0.077-0.014,0.116-0.021c0.025-0.004,0.053-0.007,0.079-0.011c0.04-0.006,0.079-0.011,0.12-0.016
			c0.024-0.002,0.05-0.005,0.075-0.009c0.043-0.003,0.087-0.006,0.133-0.009c0.022-0.001,0.042-0.003,0.064-0.005
			c0.066-0.003,0.133-0.005,0.2-0.005c0.005,0,0.01,0,0.016,0v0h6.417V7.227z"/>
	</g>
	<path fill="#8DC641" d="M10.109,2.524c-5.097,0.663-8.692,5.332-8.03,10.428c0.663,5.098,5.332,8.693,10.43,8.028
		c0.702-0.089,1.379-0.257,2.017-0.492l-2.436-2.723c-3.321,0.432-6.365-1.911-6.796-5.23C4.862,9.214,7.206,6.171,10.526,5.74
		c3.319-0.432,6.363,1.912,6.794,5.232c0.244,1.883-0.403,3.675-1.615,4.955l2.168,2.411c1.974-1.975,3.051-4.802,2.663-7.785
		C19.874,5.457,15.205,1.862,10.109,2.524z"/>
	<path fill="#8DC641" d="M35.738,7.227h-2.24v1.559v4.856h-0.002c0,0.008,0.002,0.012,0.002,0.019c0,2.312-1.876,4.189-4.192,4.189
		c-2.314,0-4.19-1.877-4.19-4.189c0-0.007,0.001-0.011,0.001-0.019h-0.001V8.786V7.227h-2.242v6.415h0.001
		c0,0.008-0.001,0.012-0.001,0.019c0,3.551,2.88,6.433,6.432,6.433c3.553,0,6.432-2.882,6.432-6.433c0-0.007,0-0.011,0-0.019l0,0
		V7.227z"/>
	<rect x="38.228" y="7.227" fill="#8DC641" width="2.242" height="12.866"/>
	<path fill="#8DC641" d="M94.615,17.694c-1.771-0.491-3.07-2.109-3.07-4.034c0-0.004,0-2.361,0-4.222l0.005-2.211h-0.005h-2.409
		v6.415v0.019c0,0.147,0.007,0.294,0.016,0.442c0.002,0.016,0.003,0.034,0.005,0.051c0,0.006,0,0.013,0,0.018
		c0.006,0.056,0.011,0.111,0.016,0.166c0.146,1.394,0.737,2.651,1.625,3.637c0.004,0.002,0.008,0.008,0.012,0.01
		c0.024,0.028,0.048,0.055,0.074,0.081c0.01,0.011,0.02,0.022,0.03,0.032c0.02,0.021,0.041,0.042,0.061,0.062
		c0.015,0.018,0.031,0.032,0.046,0.048c0.018,0.017,0.032,0.031,0.049,0.048c0.021,0.02,0.042,0.04,0.063,0.06
		c0.01,0.011,0.021,0.021,0.032,0.031c0.026,0.025,0.052,0.05,0.081,0.074c0.002,0.004,0.006,0.008,0.01,0.01
		c0.984,0.89,2.243,1.479,3.637,1.626c0.054,0.006,0.11,0.011,0.165,0.016c0.006,0,0.011,0,0.019,0
		c0.017,0.003,0.033,0.003,0.051,0.004c0.146,0.011,0.295,0.018,0.441,0.018h0.017H102V17.85v-0.171L94.615,17.694z"/>
	<path fill="#8DC641" d="M67.001,14.78v0.007h0.022l-0.006-0.007h0.056v-0.004c0.096,0.008,0.194,0.011,0.295,0.011
		c2.088,0,3.779-1.692,3.779-3.78c0-2.078-1.677-3.763-3.752-3.779V7.227h-6.793c-0.014,0.001-0.024,0.001-0.037,0.002
		c-0.013,0-0.025-0.002-0.039-0.002c-0.606,0-1.155,0.24-1.558,0.63c-0.002,0.002-0.003,0.003-0.005,0.005
		c-0.043,0.042-0.083,0.085-0.123,0.13c-0.008,0.009-0.017,0.018-0.024,0.027c-0.033,0.039-0.064,0.082-0.096,0.124
		c-0.014,0.015-0.023,0.03-0.036,0.047c-0.026,0.037-0.05,0.077-0.074,0.116c-0.014,0.022-0.026,0.045-0.041,0.069
		c-0.019,0.034-0.037,0.07-0.055,0.106c-0.014,0.029-0.029,0.059-0.044,0.09c-0.014,0.031-0.024,0.064-0.037,0.096
		c-0.015,0.036-0.028,0.073-0.041,0.109c-0.008,0.029-0.016,0.058-0.023,0.086c-0.013,0.043-0.025,0.087-0.034,0.131
		c-0.006,0.023-0.01,0.048-0.014,0.073c-0.01,0.05-0.017,0.1-0.024,0.152c-0.001,0.019-0.003,0.04-0.005,0.059
		c-0.003,0.037-0.008,0.074-0.008,0.111v10.702h2.24l-0.004-8.38c0.001,0,0.004,0,0.006,0c0-2.243-0.019-2.243,2.242-2.243h4.6
		c0.847,0,1.537,0.689,1.537,1.538c0,0.848-0.69,1.538-1.537,1.538c-0.047,0-5.296-0.007-5.296-0.007v2.242h2.069l4.132,5.312h2.874
		l-4.156-5.312H67.001z"/>
	<path fill="#8DC641" d="M51.648,14.78v0.007h0.023l-0.008-0.007h0.055v-0.004c0.098,0.008,0.195,0.011,0.295,0.011
		c2.087,0,3.779-1.692,3.779-3.78c0-2.078-1.675-3.763-3.749-3.779V7.227H45.25c-0.013,0.001-0.025,0.001-0.038,0.002
		c-0.012,0-0.025-0.002-0.039-0.002c-0.606,0-1.153,0.24-1.558,0.63c0,0.002-0.002,0.003-0.004,0.005
		c-0.044,0.042-0.084,0.085-0.123,0.13C43.48,8.002,43.471,8.01,43.462,8.02c-0.034,0.039-0.065,0.082-0.096,0.124
		c-0.012,0.015-0.023,0.03-0.035,0.047c-0.026,0.037-0.05,0.077-0.073,0.116c-0.016,0.022-0.028,0.045-0.043,0.069
		c-0.019,0.034-0.036,0.07-0.054,0.106c-0.014,0.029-0.03,0.059-0.042,0.09c-0.015,0.031-0.026,0.064-0.039,0.096
		c-0.013,0.036-0.029,0.073-0.041,0.109c-0.009,0.029-0.017,0.058-0.024,0.086c-0.013,0.043-0.025,0.087-0.034,0.131
		c-0.005,0.023-0.01,0.048-0.014,0.073c-0.009,0.05-0.017,0.1-0.023,0.152c-0.001,0.019-0.004,0.04-0.004,0.059
		c-0.005,0.037-0.009,0.074-0.01,0.111v10.702h2.24l-0.002-8.38c0.001,0,0.002,0,0.005,0c0-2.243-0.018-2.243,2.242-2.243h4.599
		c0.85,0,1.537,0.689,1.537,1.538c0,0.848-0.688,1.538-1.537,1.538c-0.047,0-5.295-0.007-5.295-0.007v2.242h2.071l4.13,5.312h2.873
		l-4.154-5.312H51.648z"/>
</g>
</svg>
