<?xml version="1.0" encoding="utf-8"?>
<!-- Generator: Adobe Illustrator 15.1.0, SVG Export Plug-In . SVG Version: 6.00 Build 0)  -->
<!DOCTYPE svg PUBLIC "-//W3C//DTD SVG 1.1//EN" "http://www.w3.org/Graphics/SVG/1.1/DTD/svg11.dtd">
<svg version="1.1" id="Layer_1" xmlns="http://www.w3.org/2000/svg" xmlns:xlink="http://www.w3.org/1999/xlink" x="0px" y="0px"
	 width="103.147px" height="31.363px" viewBox="0 0 103.147 31.363" enable-background="new 0 0 103.147 31.363"
	 xml:space="preserve">
<g>
	
		<text transform="matrix(1 0 0 1 96.6958 15.9707)" fill="#ED2224" stroke="#ED2224" stroke-width="0.25" stroke-miterlimit="10" font-family="'Questrial-Regular'" font-size="3.8889">TM</text>
	<g>
		<path fill="#ED2224" d="M79.482,16.5c0-0.374-0.094-0.722-0.253-1.043l-1.874,1.396v4.404h-0.002c0,0.702-0.748,1.48-1.48,1.48
			v0.003h-6.427l-1.694,1.26c0.492,0.212,0.998,0.328,1.443,0.328v-0.002h6.678v0.002c0.022,0,0.045-0.002,0.066-0.002h0.047v-0.004
			c1.426-0.061,3.4-1.242,3.488-2.95l0,0v-0.017c0.003-0.032,0.008-0.065,0.008-0.099h-0.008L79.482,16.5z"/>
		<path fill="#ED2224" d="M65.583,21.256c0,0.022,0.005,0.044,0.005,0.066v0.04h0.005c0.016,0.332,0.102,0.644,0.244,0.93
			l1.873-1.393v-4.394h0.003c0-0.704,0.75-1.483,1.481-1.483V15.02h6.412l1.699-1.266c-0.487-0.21-0.992-0.327-1.434-0.327v0.007
			h-6.678v-0.001c-1.464,0-3.611,1.255-3.611,3.073h0.005v4.75H65.583z"/>
	</g>
	<path fill="#ED2224" d="M11.805,13.433c0,0-4.469,0-7.128,0c-2.66,0-2.649,1.777-2.649,1.777v8.267c0,0-0.027,0.854,1.048,0.854
		s1.091-0.812,1.091-0.812v-3.83h7.606c0,0,4,0.117,4-3.075C15.772,13.423,11.805,13.433,11.805,13.433z M11.94,18.097L4.152,18.09
		v-1.611c0,0-0.171-1.425,1.467-1.425c1.64,0,6.356,0,6.356,0s1.688,0.007,1.688,1.532C13.664,18.111,11.94,18.097,11.94,18.097z"/>
	<path fill="#ED2224" d="M31.59,24.339l-4.124-4.65h0.115c0,0,4,0.117,4-3.075c0-3.19-3.967-3.18-3.967-3.18s-4.469,0-7.128,0
		c-2.66,0-2.649,1.777-2.649,1.777v8.267c0,0-0.027,0.854,1.047,0.854c1.076,0,1.091-0.812,1.091-0.812v-3.83h4.987l4.125,4.65
		H31.59z M19.961,18.09v-1.611c0,0-0.17-1.425,1.467-1.425c1.64,0,6.357,0,6.357,0s1.687,0.007,1.687,1.532
		c0,1.524-1.724,1.511-1.724,1.511L19.961,18.09z"/>
	<path fill="#ED2224" d="M46.51,22.735v0.004h-9.256v-0.003c-0.729,0-1.479-0.778-1.479-1.48h-0.003v-1.586h5.939v0.002
		c0,0,1.037,0.02,1.037-0.779c0-0.729-0.86-0.799-1.011-0.806v-0.003h-5.965v-1.578h0.003c0-0.704,0.75-1.483,1.479-1.483V15.02
		h9.256v0.002c0,0,1.036,0.021,1.036-0.78c0-0.737-0.878-0.8-1.017-0.805v-0.002h-9.275v-0.001c-1.461,0-3.608,1.255-3.608,3.073
		h0.005v4.75h-0.005c0,0.022,0.005,0.044,0.005,0.066v0.04h0.002c0.083,1.758,2.169,2.965,3.601,2.965v-0.002h9.283V24.32
		c0.156-0.003,1.008-0.053,1.008-0.777C47.545,22.741,46.51,22.735,46.51,22.735z"/>
	<path fill="#ED2224" d="M63.497,21.131h-0.005c-0.004-0.111-0.052-0.804-1.065-0.804c-1.101,0-1.058,0.818-1.058,0.818h0.004v0.113
		l0,0c-0.004,0.703-0.751,1.478-1.48,1.478v0.003h-6.678v-0.003c-0.732,0-1.48-0.778-1.48-1.48h-0.002v-4.75h0.002
		c0-0.704,0.748-1.483,1.48-1.483V15.02h6.691c0.725,0.011,1.463,0.778,1.467,1.475l0,0v0.114c0,0-0.047,0.82,1.054,0.82
		c1.014,0,1.062-0.694,1.065-0.804h0.005V16.5h0.005c0-1.817-2.145-3.072-3.609-3.072v0.007h-6.678v-0.001
		c-1.463,0-3.609,1.255-3.609,3.073h0.005v4.75h-0.005c0,0.022,0.003,0.044,0.005,0.066v0.04h0.002
		c0.083,1.758,2.167,2.965,3.602,2.965v-0.002h6.678v0.002c0.023,0,0.045-0.002,0.068-0.002h0.045v-0.004
		c1.457-0.062,3.496-1.295,3.496-3.065h-0.005V21.131z"/>
	<path fill="#ED2224" d="M95.248,16.5h0.009c0-1.817-2.146-3.072-3.609-3.072v0.007h-6.678v-0.001c-1.464,0-3.61,1.255-3.61,3.073
		h0.005v4.856h0.004c0.085,1.758,2.168,2.965,3.602,2.965v-0.002h8.159v0.9h-0.002c0,0.699-0.738,1.47-4.023,1.48l-6.691-0.004
		v0.001c-0.122,0-1.023,0.033-1.023,0.778c0,0.732,0.867,0.799,1.014,0.807v0.004l9.245,0.004c1.463,0,3.609-1.254,3.609-3.07
		L95.248,16.5z M84.969,22.739v-0.003c-0.731,0-1.481-0.778-1.481-1.48h-0.002v-4.75h0.002c0-0.704,0.75-1.483,1.481-1.483V15.02
		h6.692c0.727,0.011,1.465,0.782,1.465,1.48h0.002v6.24H84.969z"/>
</g>
<text transform="matrix(1 0 0 1 2.0278 7.9766)" fill="#808080" font-family="'Questrial-Regular'" font-size="7.5172">powered by</text>
</svg>
